<svg id="svg2" xmlns="http://www.w3.org/2000/svg" viewBox="0 0 110 107.5"><style>.st0{fill:#ff2365}.st1{fill:#161616}</style><g id="g3103" transform="translate(-21.016)"><path id="path6" class="st0" d="M78.5 0H86v10c13.4.1 26.7-.1 40.1.1 2.8-.3 5.1 1.9 4.8 4.8.2 24.6-.1 49.3.1 73.9-.1 2.5.3 5.3-1.2 7.6-1.8 1.3-4.2 1.1-6.3 1.2-12.5-.1-25 0-37.5 0v10h-7.8c-19-3.5-38.1-6.7-57.2-10V10.1C40.2 6.7 59.4 3.4 78.5 0z"/><path id="path46" class="st1" d="M86 13.8h41.3v80H86v-10h32.5v-5H86v-6.3h32.5v-5H86v-6.3h32.5v-5H86v-6.3h32.5v-5H86v-6.3h32.5v-5H86v-6.3h32.5v-5H86v-8.5z"/><path id="path88" class="st1" d="M46.8 35.8c2.4-.1 4.8-.2 7.1-.4 1.7 8.4 3.4 16.9 5.2 25.3 1.4-8.7 3-17.3 4.5-26 2.5-.1 5-.2 7.5-.4-2.8 12.1-5.3 24.3-8.4 36.4-2.1 1.1-5.2-.1-7.7.1-1.7-8.3-3.6-16.5-5.1-24.8-1.5 8.1-3.4 16.1-5 24.1-2.4-.1-4.8-.3-7.2-.4-2.1-11-4.5-21.9-6.4-32.9 2.1-.1 4.3-.2 6.4-.3 1.3 8 2.8 15.9 3.9 23.9 1.7-8.2 3.5-16.4 5.2-24.6z"/></g></svg>